<svg width="72" height="72" viewBox="0 0 72 72" fill="none" xmlns="http://www.w3.org/2000/svg">
<circle cx="36" cy="36" r="35" fill="white" stroke="#E31E25" stroke-width="2"/>
<g clip-path="url(#clip0)">
<path d="M57.1427 28.4606C57.6572 28.2778 58.0006 27.7906 58 27.2445C57.9993 26.6985 57.6547 26.2122 57.1398 26.0305L36.4289 18.7231C36.1514 18.6252 35.8487 18.6252 35.5712 18.7231L14.8602 26.0305C14.3453 26.2121 14.0007 26.6985 14 27.2445C13.9993 27.7906 14.3428 28.2778 14.8573 28.4606L23.0617 31.3773V39.7861C23.0617 41.1739 24.5095 42.3475 27.3648 43.2743C29.8537 44.0821 32.9204 44.527 36.0001 44.527C39.0797 44.527 42.1464 44.0821 44.6353 43.2743C47.4907 42.3475 48.9385 41.174 48.9385 39.7861V31.3773L52.3259 30.1731V41.8249C50.8195 42.3575 49.737 43.7951 49.737 45.4817C49.737 47.1681 50.8195 48.6058 52.3259 49.1385V54.0614C52.3259 54.7733 52.903 55.3505 53.6149 55.3505C54.3268 55.3505 54.904 54.7733 54.904 54.0614V49.1385C56.4104 48.6058 57.4929 47.1682 57.4929 45.4817C57.4929 43.7952 56.4104 42.3575 54.904 41.8249V29.2565L57.1427 28.4606ZM53.6149 46.7814C52.8981 46.7814 52.3151 46.1983 52.3151 45.4816C52.3151 44.7649 52.8981 44.1818 53.6149 44.1818C54.3316 44.1818 54.9147 44.7649 54.9147 45.4816C54.9147 46.1983 54.3316 46.7814 53.6149 46.7814ZM36 21.3056L52.8497 27.2507L36 33.2408L19.1503 27.2506L36 21.3056ZM46.3603 39.5918C46.1132 39.8408 45.2287 40.4373 43.2325 41.0068C41.1029 41.6143 38.5343 41.9489 36 41.9489C33.4657 41.9489 30.8972 41.6143 28.7675 41.0068C26.7713 40.4373 25.8868 39.8409 25.6397 39.5918V32.2939L35.5682 35.8235C35.7078 35.8732 35.8539 35.898 35.9999 35.898C36.146 35.898 36.292 35.8732 36.4317 35.8235L46.3601 32.2939V39.5918H46.3603Z" fill="#E31E25"/>
</g>
<defs>
<clipPath id="clip0">
<rect width="44" height="44" fill="white" transform="translate(14 15)"/>
</clipPath>
</defs>
</svg>
