<svg width="25" height="25" viewBox="0 0 25 25" fill="none" xmlns="http://www.w3.org/2000/svg">
<path d="M12.5 0L1.51385 3.15981V8.66855C1.51385 15.7388 5.71298 22.0913 12.2115 24.8764L12.5 25L12.7885 24.8764C19.2871 22.0913 23.4861 15.7388 23.4861 8.66855V3.15981L12.5 0ZM22.0213 8.66855C22.0213 15.0468 18.2947 20.8019 12.5 23.4186C6.70531 20.8019 2.97865 15.0468 2.97865 8.66855V4.26274L12.5 1.52422L22.0213 4.26274V8.66855Z" fill="#E31E25"/>
<path d="M12.5 3.06641L4.44351 5.36846V8.66816C4.44351 14.08 7.39703 19.0397 12.1516 21.6117L12.5001 21.8002L12.8485 21.6117C17.603 19.0397 20.5566 14.08 20.5566 8.66816V5.36846L12.5 3.06641ZM11.7676 19.6704C8.12452 17.2265 5.90831 13.1172 5.90831 8.66816V6.47339L11.7676 4.79912V19.6704ZM19.0917 8.66816C19.0917 13.1172 16.8755 17.2264 13.2324 19.6704V4.79912L19.0917 6.47334V8.66816Z" fill="#E31E25"/>
</svg>
