<svg width="72" height="72" viewBox="0 0 72 72" fill="none" xmlns="http://www.w3.org/2000/svg">
<circle cx="36" cy="36" r="35" fill="white" stroke="#E31E25" stroke-width="2"/>
<g clip-path="url(#clip0)">
<path d="M54.8275 31.5791H51.123C50.8686 30.7459 50.5456 29.9357 50.1572 29.1563L53.0632 26.2502C53.2831 26.0303 53.4067 25.7321 53.4067 25.4211C53.4067 25.1101 53.2831 24.8119 53.0632 24.5921L47.8923 19.4212C47.4345 18.9633 46.6921 18.9633 46.2341 19.4212L43.4199 22.2354C42.6286 21.8138 41.803 21.4609 40.9518 21.18V17.1854C40.9518 16.5379 40.4268 16.0129 39.7792 16.0129H32.4666C31.8191 16.0129 31.2941 16.5379 31.2941 17.1854V21.0949C30.4023 21.3716 29.537 21.7274 28.707 22.1584L26.1739 19.6253C25.7161 19.1674 24.9736 19.1675 24.5157 19.6253L19.3449 24.7961C18.887 25.2539 18.887 25.9964 19.3449 26.4543L21.8975 29.0069C21.4741 29.8334 21.1253 30.6937 20.8546 31.5791H17.1725C16.525 31.5791 16 32.1041 16 32.7516V40.0642C16 40.7118 16.525 41.2367 17.1725 41.2367H20.9824C21.2596 42.065 21.6053 42.8685 22.016 43.6394L19.2939 46.3615C19.074 46.5813 18.9504 46.8796 18.9504 47.1906C18.9504 47.5016 19.0739 47.7998 19.2939 48.0197L24.4647 53.1904C24.9225 53.6483 25.6649 53.6483 26.1229 53.1904L28.9366 50.3766C29.6498 50.7322 30.3883 51.033 31.1456 51.2764V54.8147C31.1456 55.4623 31.6706 55.9872 32.3182 55.9872H39.6308C40.2783 55.9872 40.8033 55.4623 40.8033 54.8147V51.2853C41.6237 51.0234 42.4221 50.694 43.1908 50.3002L46.1066 53.2159C46.5644 53.6737 47.3069 53.6738 47.7649 53.2159L52.9357 48.0451C53.1556 47.8253 53.2792 47.527 53.2792 47.216C53.2792 46.905 53.1556 46.6068 52.9357 46.3869L50.0393 43.4905C50.416 42.7648 50.7356 42.0112 50.9951 41.2367H54.8275C55.475 41.2367 56 40.7117 56 40.0641V32.7515C56 32.1041 55.475 31.5791 54.8275 31.5791ZM53.6549 38.8917H50.1259C49.5968 38.8917 49.1334 39.2458 48.9945 39.7563C48.6759 40.9268 48.199 42.0498 47.577 43.094C47.3024 43.5551 47.3759 44.1437 47.7553 44.5231L50.4482 47.2161L46.9356 50.7286L44.2271 48.0201C43.8493 47.6425 43.2645 47.5677 42.8041 47.8382C41.7184 48.4759 40.5529 48.9566 39.3401 49.2668C38.8211 49.3995 38.4582 49.8671 38.4582 50.4027V53.6421H33.4906V50.3955C33.4906 49.8607 33.1288 49.3937 32.611 49.2601C31.456 48.9622 30.3435 48.5096 29.3046 47.9151C28.8455 47.6523 28.2672 47.7295 27.8931 48.1037L25.2936 50.7031L21.781 47.1905L24.3068 44.6649C24.6898 44.2819 24.7607 43.6866 24.4783 43.2244C23.8183 42.1441 23.3151 40.9772 22.9829 39.7563C22.844 39.2458 22.3805 38.8916 21.8515 38.8916H18.3451V33.9241H21.749C22.2905 33.9241 22.7614 33.5534 22.8888 33.0272C23.1969 31.7529 23.6918 30.5303 24.3595 29.3935C24.63 28.933 24.5552 28.3481 24.1776 27.9705L21.8322 25.6251L25.3448 22.1126L27.6745 24.4422C28.054 24.8217 28.6425 24.8951 29.1036 24.6205C30.2407 23.9432 31.4667 23.4396 32.7476 23.1235C33.2712 22.9943 33.6392 22.5245 33.6392 21.9851V18.358H38.6067V22.0535C38.6067 22.5845 38.9635 23.0493 39.4766 23.1863C40.7195 23.5184 41.9066 24.027 43.005 24.698C43.4671 24.9802 44.0624 24.9094 44.4454 24.5265L47.0633 21.9086L50.5759 25.4211L47.8842 28.1128C47.5101 28.4869 47.4329 29.0651 47.6957 29.5243C48.323 30.6205 48.7917 31.7991 49.0889 33.0273C49.2161 33.5535 49.6871 33.9242 50.2285 33.9242H53.6549V38.8917Z" fill="#E31E25"/>
<path d="M27.1316 34.4809C27.3725 34.8581 27.887 35.1208 28.4037 34.9819L30.4805 34.4572C31.1084 34.2986 31.4887 33.661 31.3301 33.0332C31.194 32.4941 30.7044 32.1385 30.1714 32.1489C31.441 30.2592 33.5984 29.0547 35.9632 29.0547C39.0025 29.0547 41.6691 30.9967 42.5989 33.8871C42.7972 34.5036 43.4573 34.8427 44.0741 34.6443C44.6906 34.446 45.0296 33.7856 44.8313 33.1691C43.5887 29.3055 40.0248 26.7096 35.9633 26.7096C32.6004 26.7096 29.55 28.532 27.9102 31.3424C27.5424 30.877 26.8751 30.7556 26.363 31.0804C25.8161 31.4272 25.654 32.1518 26.0008 32.6985L27.1263 34.4731C27.128 34.4757 27.1299 34.4782 27.1316 34.4809Z" fill="#E31E25"/>
<path d="M44.8847 37.5445C44.6451 37.162 44.1423 36.8727 43.5962 37.0182L41.5194 37.5428C40.8916 37.7014 40.5112 38.339 40.6698 38.9668C40.8041 39.4983 41.2815 39.8525 41.8058 39.8525C41.8132 39.8525 41.8207 39.8519 41.8281 39.8518C40.5584 41.7411 38.4013 42.9453 36.0367 42.9453C32.9975 42.9453 30.3309 41.0033 29.4011 38.1129C29.2027 37.4965 28.5422 37.1573 27.9258 37.3557C27.3093 37.5541 26.9703 38.2145 27.1686 38.831C28.4114 42.6946 31.9752 45.2905 36.0366 45.2905C39.3996 45.2905 42.45 43.4681 44.0897 40.6578C44.4575 41.1231 45.1249 41.2445 45.6369 40.9198C46.1838 40.5729 46.3459 39.8484 45.9991 39.3016L44.8847 37.5445Z" fill="#E31E25"/>
</g>
<defs>
<clipPath id="clip0">
<rect width="40" height="40" fill="white" transform="translate(16 16)"/>
</clipPath>
</defs>
</svg>
