<svg width="18" height="17" viewBox="0 0 18 17" fill="none" xmlns="http://www.w3.org/2000/svg">
<path d="M10.1593 4.53906H8.97281V6.91445H6.45026V8.0834H8.97281V10.4963H10.1593V8.0834H12.6782V6.91445H10.1593V4.53906Z" fill="#E31E25"/>
<path d="M9.56426 0C5.22462 0 1.70446 3.36371 1.70446 7.51807C1.70446 9.34817 2.38854 11.0249 3.52511 12.3302L0.22228 15.4587C-0.0734424 15.7416 -0.0734424 16.1676 0.22228 16.4505C0.518003 16.7333 0.963368 16.7333 1.25909 16.4505L4.54767 13.3049C5.90871 14.3852 7.65454 15.0327 9.5607 15.0327C13.9003 15.0327 17.4205 11.669 17.4205 7.51466C17.4205 3.3603 13.9039 0 9.56426 0ZM9.56426 13.6525C6.02272 13.6525 3.151 10.9056 3.151 7.51807C3.151 4.13051 6.02272 1.38365 9.56426 1.38365C13.1058 1.38365 15.9775 4.13051 15.9775 7.51807C15.9775 10.9056 13.1058 13.6525 9.56426 13.6525Z" fill="#E31E25"/>
</svg>
