<svg width="30" height="20" viewBox="0 0 30 20" fill="#ff545a" xmlns="http://www.w3.org/2000/svg">
<path d="M0 1.66667C0 0.746192 0.746192 0 1.66667 0H28.3333C29.2538 0 30 0.746192 30 1.66667C30 2.58714 29.2538 3.33333 28.3333 3.33333H1.66667C0.746193 3.33333 0 2.58714 0 1.66667Z" fill="#E31E25"/>
<path d="M8.33333 10C8.33333 9.07952 9.07952 8.33333 10 8.33333H28.3333C29.2538 8.33333 30 9.07952 30 10C30 10.9205 29.2538 11.6667 28.3333 11.6667H10C9.07952 11.6667 8.33333 10.9205 8.33333 10Z" fill="#E31E25"/>
<path d="M13.3333 18.3333C13.3333 17.4129 14.0795 16.6667 15 16.6667H28.3333C29.2538 16.6667 30 17.4129 30 18.3333C30 19.2538 29.2538 20 28.3333 20H15C14.0795 20 13.3333 19.2538 13.3333 18.3333Z" fill="#E31E25"/>
</svg>
