<svg width="25" height="25" viewBox="0 0 25 25" fill="none" xmlns="http://www.w3.org/2000/svg">
<path d="M11.8418 2.63281H13.1576V3.9486H11.8418V2.63281Z" fill="#E31E25"/>
<path d="M5.05469 5.98828L5.98509 5.05788L6.9155 5.98828L5.98509 6.91868L5.05469 5.98828Z" fill="#E31E25"/>
<path d="M24.3421 9.21053H21.1046C21.0454 9.05592 20.9816 8.90066 20.9112 8.74342L23.202 6.45197C23.3253 6.3286 23.3946 6.16129 23.3946 5.98684C23.3946 5.81239 23.3253 5.64508 23.202 5.52171L19.4783 1.79803C19.3549 1.67469 19.1876 1.6054 19.0132 1.6054C18.8387 1.6054 18.6714 1.67469 18.548 1.79803L16.2572 4.08882C16.1 4.01842 15.9441 3.95724 15.7895 3.89539V0.657895C15.7895 0.48341 15.7202 0.316072 15.5968 0.192693C15.4734 0.0693137 15.3061 0 15.1316 0H9.86842C9.69394 0 9.5266 0.0693137 9.40322 0.192693C9.27984 0.316072 9.21053 0.48341 9.21053 0.657895V3.89539C9.05592 3.95461 8.9 4.01842 8.74276 4.08882L6.45197 1.79803C6.3286 1.67469 6.16129 1.6054 5.98684 1.6054C5.81239 1.6054 5.64508 1.67469 5.52171 1.79803L1.79803 5.52171C1.67469 5.64508 1.6054 5.81239 1.6054 5.98684C1.6054 6.16129 1.67469 6.3286 1.79803 6.45197L4.08882 8.74276C4.01842 8.9 3.95724 9.05592 3.89539 9.21053H0.657895C0.48341 9.21053 0.316072 9.27984 0.192692 9.40322C0.0693132 9.5266 0 9.69394 0 9.86842V15.1316C0 15.3061 0.0693132 15.4734 0.192692 15.5968C0.316072 15.7202 0.48341 15.7895 0.657895 15.7895H3.89539C3.9546 15.9441 4.01842 16.1 4.08882 16.2572L1.79803 18.548C1.67469 18.6714 1.6054 18.8387 1.6054 19.0132C1.6054 19.1876 1.67469 19.3549 1.79803 19.4783L5.52171 23.202C5.64508 23.3253 5.81239 23.3946 5.98684 23.3946C6.16129 23.3946 6.3286 23.3253 6.45197 23.202L8.74276 20.9112C8.9 20.9816 9.05592 21.0428 9.21053 21.1046V24.3421C9.21053 24.5166 9.27984 24.6839 9.40322 24.8073C9.5266 24.9307 9.69394 25 9.86842 25H15.1316C15.3061 25 15.4734 24.9307 15.5968 24.8073C15.7202 24.6839 15.7895 24.5166 15.7895 24.3421V21.1046C15.9441 21.0454 16.1 20.9816 16.2572 20.9112L18.548 23.202C18.6737 23.3208 18.8402 23.3871 19.0132 23.3871C19.1862 23.3871 19.3526 23.3208 19.4783 23.202L23.202 19.4783C23.3253 19.3549 23.3946 19.1876 23.3946 19.0132C23.3946 18.8387 23.3253 18.6714 23.202 18.548L20.9112 16.2566C20.9816 16.0993 21.0428 15.9441 21.1046 15.7895H24.3421C24.5166 15.7895 24.6839 15.7202 24.8073 15.5968C24.9307 15.4734 25 15.3061 25 15.1316V9.86842C25 9.69394 24.9307 9.5266 24.8073 9.40322C24.6839 9.27984 24.5166 9.21053 24.3421 9.21053ZM23.6842 14.4737H20.6382C20.4983 14.4738 20.3621 14.5185 20.2493 14.6013C20.1366 14.6842 20.0532 14.8008 20.0112 14.9342C19.8815 15.3356 19.7207 15.7263 19.5303 16.1026C19.4685 16.2261 19.4472 16.3658 19.4693 16.5021C19.4914 16.6383 19.5557 16.7642 19.6533 16.8618L21.8066 19.0132L19.0132 21.8066L16.8599 19.6533C16.7622 19.5557 16.6364 19.4914 16.5001 19.4693C16.3639 19.4472 16.2241 19.4685 16.1007 19.5303C15.7243 19.7207 15.3336 19.8815 14.9322 20.0112C14.7988 20.0532 14.6822 20.1366 14.5994 20.2493C14.5166 20.3621 14.4718 20.4983 14.4717 20.6382V23.6842H10.5263V20.6382C10.5262 20.4983 10.4815 20.3621 10.3986 20.2493C10.3158 20.1366 10.1992 20.0532 10.0658 20.0112C9.6644 19.8815 9.27374 19.7207 8.89737 19.5303C8.77391 19.4685 8.63417 19.4472 8.49791 19.4693C8.36166 19.4914 8.2358 19.5557 8.13816 19.6533L5.98684 21.8066L3.19342 19.0132L5.34671 16.8599C5.44427 16.7622 5.50864 16.6364 5.53072 16.5001C5.5528 16.3639 5.53147 16.2241 5.46974 16.1007C5.27928 15.7243 5.11848 15.3336 4.98882 14.9322C4.94685 14.7988 4.86344 14.6822 4.75069 14.5994C4.63794 14.5166 4.50173 14.4718 4.36184 14.4717H1.31579V10.5263H4.36184C4.50173 10.5262 4.63794 10.4815 4.75069 10.3987C4.86344 10.3158 4.94685 10.1992 4.98882 10.0658C5.11848 9.6644 5.27928 9.27374 5.46974 8.89737C5.53147 8.77391 5.5528 8.63417 5.53072 8.49791C5.50864 8.36166 5.44427 8.2358 5.34671 8.13816L3.19342 5.98684L5.98684 3.19342L8.14013 5.34671C8.23778 5.44427 8.36363 5.50864 8.49989 5.53072C8.63614 5.5528 8.77588 5.53147 8.89934 5.46974C9.27507 5.27937 9.66507 5.11858 10.0658 4.98882C10.1992 4.94685 10.3158 4.86343 10.3986 4.75069C10.4815 4.63794 10.5262 4.50173 10.5263 4.36184V1.31579H14.4737V4.36184C14.4738 4.50173 14.5185 4.63794 14.6014 4.75069C14.6842 4.86343 14.8008 4.94685 14.9342 4.98882C15.3356 5.11848 15.7263 5.27928 16.1026 5.46974C16.2261 5.53147 16.3658 5.5528 16.5021 5.53072C16.6383 5.50864 16.7642 5.44427 16.8618 5.34671L19.0132 3.19342L21.8066 5.98684L19.6533 8.14013C19.5557 8.23778 19.4914 8.36363 19.4693 8.49989C19.4472 8.63614 19.4685 8.77588 19.5303 8.89934C19.7207 9.27572 19.8815 9.66638 20.0112 10.0678C20.0532 10.2012 20.1366 10.3178 20.2493 10.4006C20.3621 10.4834 20.4983 10.5282 20.6382 10.5283H23.6842V14.4737Z" fill="#E31E25"/>
<path d="M12.4995 7.23633C11.4585 7.23633 10.441 7.54501 9.57543 8.12333C8.70991 8.70165 8.03532 9.52365 7.63696 10.4854C7.23861 11.4471 7.13438 12.5053 7.33746 13.5263C7.54054 14.5472 8.04181 15.485 8.77787 16.2211C9.51394 16.9572 10.4517 17.4584 11.4727 17.6615C12.4936 17.8646 13.5519 17.7604 14.5136 17.362C15.4753 16.9637 16.2973 16.2891 16.8756 15.4235C17.454 14.558 17.7626 13.5404 17.7626 12.4995C17.7611 11.1041 17.2061 9.7663 16.2194 8.7796C15.2327 7.79291 13.8949 7.2379 12.4995 7.23633ZM12.4995 16.4469C11.7188 16.4469 10.9556 16.2153 10.3064 15.7816C9.65731 15.3479 9.15136 14.7314 8.8526 14.0101C8.55383 13.2888 8.47566 12.4951 8.62797 11.7294C8.78028 10.9637 9.15623 10.2603 9.70828 9.70827C10.2603 9.15623 10.9637 8.78028 11.7294 8.62797C12.4951 8.47566 13.2888 8.55383 14.0101 8.85259C14.7314 9.15136 15.3479 9.6573 15.7816 10.3064C16.2153 10.9556 16.4469 11.7188 16.4469 12.4995C16.4458 13.5461 16.0296 14.5495 15.2895 15.2895C14.5495 16.0296 13.5461 16.4458 12.4995 16.4469Z" fill="#E31E25"/>
<path d="M2.63086 11.8418H3.94665V13.1576H2.63086V11.8418Z" fill="#E31E25"/>
<path d="M5.05273 19.0137L5.98314 18.0833L6.91354 19.0137L5.98314 19.9441L5.05273 19.0137Z" fill="#E31E25"/>
<path d="M11.8418 21.0527H13.1576V22.3685H11.8418V21.0527Z" fill="#E31E25"/>
<path d="M18.0781 19.0156L19.0085 18.0852L19.9389 19.0156L19.0085 19.946L18.0781 19.0156Z" fill="#E31E25"/>
<path d="M21.0527 11.8418H22.3685V13.1576H21.0527V11.8418Z" fill="#E31E25"/>
<path d="M18.0781 5.99023L19.0085 5.05983L19.9389 5.99023L19.0085 6.92064L18.0781 5.99023Z" fill="#E31E25"/>
</svg>
