<svg width="25" height="25" viewBox="0 0 25 25" fill="none" xmlns="http://www.w3.org/2000/svg">
<path d="M20.7981 4.34673C18.8896 1.58452 15.8648 0 12.5 0C9.13521 0 6.11046 1.58452 4.20191 4.34673C2.30274 7.09497 1.86422 10.5743 3.02652 13.6483C3.33741 14.4877 3.8316 15.3033 4.49185 16.0676L11.8345 24.6923C12.0006 24.8875 12.2439 25 12.5 25C12.7561 25 12.9994 24.8875 13.1655 24.6923L20.5061 16.0699C21.1693 15.3013 21.6628 14.4866 21.9712 13.6539C23.1358 10.5743 22.6973 7.09497 20.7981 4.34673ZM20.3342 13.0416C20.0965 13.6841 19.7084 14.3193 19.1813 14.9303C19.1798 14.9318 19.1783 14.9333 19.1772 14.935L12.5 22.7777L5.81876 14.9301C5.29195 14.3196 4.90382 13.6845 4.66373 13.0358C3.7025 10.4936 4.06729 7.61685 5.63985 5.34092C7.21734 3.05772 9.71793 1.74824 12.5 1.74824C15.282 1.74824 17.7823 3.05767 19.3599 5.34092C20.9327 7.61685 21.2978 10.4936 20.3342 13.0416Z" fill="#E31E25"/>
<path d="M12.5006 5.1875C9.80156 5.1875 7.60547 7.3833 7.60547 10.0826C7.60547 12.7819 9.80127 14.9777 12.5006 14.9777C15.1999 14.9777 17.3957 12.7819 17.3957 10.0826C17.3957 7.38359 15.1996 5.1875 12.5006 5.1875ZM12.5006 13.2294C10.7654 13.2294 9.35371 11.8177 9.35371 10.0826C9.35371 8.34741 10.7654 6.93569 12.5006 6.93569C14.2357 6.93569 15.6475 8.34741 15.6475 10.0826C15.6475 11.8177 14.2357 13.2294 12.5006 13.2294Z" fill="#E31E25"/>
</svg>
