<svg width="72" height="72" viewBox="0 0 72 72" fill="none" xmlns="http://www.w3.org/2000/svg">
<circle cx="36" cy="36" r="35" fill="white" stroke="#E31E25" stroke-width="2"/>
<g clip-path="url(#clip0)">
<path d="M53.0992 51.9579L46.8055 41.3402C46.8448 40.8621 46.9043 40.1436 47.0548 39.9371C47.2004 39.7373 47.8625 39.4621 48.3006 39.28C49.2922 38.8679 50.5264 38.3549 50.9171 37.1553C51.2962 35.9911 50.6462 34.918 50.0726 33.9713C49.8024 33.5254 49.4324 32.9147 49.4324 32.6326C49.4324 32.3504 49.8024 31.7397 50.0726 31.2937C50.6462 30.3469 51.2962 29.2738 50.9171 28.1097C50.5264 26.9101 49.2922 26.3972 48.3005 25.985C47.8624 25.8029 47.2003 25.5277 47.0548 25.328C46.9039 25.1208 46.8444 24.3983 46.8051 23.9202C46.7176 22.8573 46.6087 21.5345 45.5999 20.7996C44.5981 20.0697 43.3661 20.3584 42.2789 20.6127C41.7793 20.7297 41.095 20.8896 40.8415 20.8073C40.6194 20.735 40.1615 20.1998 39.8584 19.8456C39.155 19.0233 38.2794 18 36.9999 18C35.7204 18 34.8448 19.0233 34.1414 19.8455C33.8383 20.1997 33.3803 20.7349 33.1584 20.8072C32.9047 20.8894 32.2205 20.7295 31.7208 20.6126C30.6337 20.3582 29.4017 20.0697 28.4 20.7994C27.9109 21.1556 27.5846 21.6816 27.4023 22.4075C27.2787 22.9 27.236 23.4186 27.1948 23.92C27.1554 24.3982 27.096 25.1206 26.9451 25.3278C26.7995 25.5276 26.1374 25.8028 25.6993 25.9848C24.7076 26.397 23.4734 26.9099 23.0828 28.1096C22.7037 29.2737 23.3537 30.3469 23.9273 31.2935C24.1974 31.7395 24.5674 32.3502 24.5674 32.6324C24.5674 32.9145 24.1975 33.5252 23.9273 33.9712C23.3538 34.9179 22.7037 35.9911 23.0829 37.1552C23.4736 38.3548 24.7077 38.8677 25.6993 39.2799C26.1375 39.4619 26.7996 39.7372 26.9451 39.937C27.0955 40.1435 27.1551 40.862 27.1944 41.3401L20.9008 51.9579C20.6584 52.3669 20.6854 52.8815 20.9694 53.2627C21.2533 53.644 21.7384 53.8174 22.1999 53.7023L26.7716 52.5618L27.9654 57.1199C28.0857 57.5794 28.4701 57.9217 28.9404 57.9883C28.9958 57.9962 29.051 57.9999 29.1058 57.9999C29.5168 57.9999 29.9036 57.7846 30.118 57.4245L36.2434 47.1399C36.4792 47.2192 36.7304 47.265 36.9998 47.265C37.2785 47.265 37.538 47.2164 37.7808 47.1319L43.8804 57.4223C44.0946 57.7836 44.4819 58 44.8939 58C44.9483 58 45.0032 57.9962 45.0581 57.9885C45.5289 57.9225 45.9139 57.58 46.0344 57.12L47.2283 52.5619L51.8 53.7024C52.2616 53.8175 52.7465 53.6441 53.0305 53.2628C53.3145 52.8815 53.3416 52.3669 53.0992 51.9579ZM35.9324 43.8871C35.3464 43.2022 34.7405 42.4941 33.8882 42.2165C33.5894 42.1192 33.2802 42.0811 32.9687 42.0811C32.3631 42.0811 31.7483 42.2249 31.1835 42.3573C30.7739 42.4532 30.02 42.6294 29.7884 42.5566C29.6434 42.3598 29.579 41.5769 29.544 41.1516C29.4722 40.2796 29.3909 39.2913 28.8503 38.5492C28.3152 37.8146 27.4452 37.4531 26.6039 37.1034C26.2049 36.9376 25.471 36.6326 25.3296 36.4305C25.3399 36.1887 25.7307 35.5437 25.9434 35.1925C26.4033 34.4333 26.9246 33.5729 26.9246 32.6325C26.9246 31.692 26.4032 30.8315 25.9434 30.0723C25.7307 29.7212 25.3399 29.0762 25.3296 28.8344C25.471 28.6324 26.2051 28.3273 26.6041 28.1615C27.4453 27.8118 28.3153 27.4503 28.8504 26.7158C29.391 25.9737 29.4723 24.9854 29.5441 24.1134C29.5791 23.6881 29.6435 22.9053 29.7885 22.7084C30.0206 22.6356 30.774 22.8118 31.1836 22.9078C32.039 23.108 33.0087 23.335 33.8883 23.0485C34.7405 22.771 35.3465 22.0628 35.9325 21.3779C36.2043 21.0603 36.7678 20.4016 37.0001 20.3578C37.2323 20.4017 37.7958 21.0603 38.0676 21.3779C38.6536 22.0628 39.2595 22.7709 40.1119 23.0485C40.9914 23.335 41.9611 23.108 42.8165 22.9078C43.2262 22.8118 43.9801 22.6354 44.2117 22.7084C44.3567 22.9052 44.4211 23.6881 44.4561 24.1134C44.5279 24.9854 44.6091 25.9737 45.1498 26.7158C45.6849 27.4503 46.5548 27.8119 47.3962 28.1616C47.7951 28.3273 48.5291 28.6324 48.6705 28.8344C48.6601 29.0763 48.2695 29.7213 48.0568 30.0724C47.5968 30.8316 47.0756 31.6921 47.0756 32.6326C47.0756 33.573 47.5969 34.4335 48.0568 35.1926C48.2695 35.5438 48.6602 36.1887 48.6705 36.4306C48.5291 36.6326 47.7952 36.9376 47.3962 37.1035C46.5548 37.4532 45.6849 37.8148 45.1498 38.5493C44.6091 39.2914 44.5278 40.2797 44.4561 41.1517C44.4211 41.577 44.3566 42.3598 44.2118 42.5567C43.9798 42.6295 43.2262 42.4532 42.8167 42.3573C41.9612 42.157 40.9916 41.93 40.1119 42.2165C39.2595 42.4941 38.6536 43.2023 38.0676 43.8872C37.7958 44.2049 37.2323 44.8634 37.0001 44.9074C36.7677 44.8633 36.2042 44.2048 35.9324 43.8871ZM29.5327 53.8009L28.7567 50.8377C28.5931 50.2132 27.9577 49.8367 27.3312 49.9928L24.3673 50.7322L28.1867 44.2887C28.2531 44.3506 28.3236 44.4099 28.3999 44.4655C29.4016 45.1952 30.6336 44.9067 31.7207 44.6522C32.2204 44.5353 32.9047 44.3752 33.1583 44.4576C33.3803 44.5299 33.8382 45.0651 34.1413 45.4193C34.2148 45.5053 34.2904 45.5934 34.368 45.6825L29.5327 53.8009ZM46.6687 49.9929C46.0425 49.8363 45.4068 50.2135 45.2433 50.8378L44.4692 53.7929L39.6496 45.6621C39.7209 45.5801 39.7904 45.4988 39.8584 45.4194C40.1615 45.0652 40.6194 44.53 40.8415 44.4577C41.0951 44.3754 41.7795 44.5353 42.2791 44.6523C43.366 44.9068 44.5981 45.1952 45.5999 44.4656C45.6749 44.4109 45.7457 44.3517 45.8132 44.2889L49.6325 50.7323L46.6687 49.9929Z" fill="#E31E25"/>
<path d="M44.8306 32.6324C44.8306 28.3146 41.3178 24.8018 37 24.8018C32.6821 24.8018 29.1694 28.3146 29.1694 32.6324C29.1694 36.9502 32.6821 40.463 37 40.463C41.3178 40.4631 44.8306 36.9503 44.8306 32.6324ZM31.5265 32.6324C31.5265 29.6143 33.9819 27.1589 37 27.1589C40.0181 27.1589 42.4735 29.6143 42.4735 32.6324C42.4735 35.6505 40.0181 38.1059 37 38.1059C33.9819 38.1059 31.5265 35.6505 31.5265 32.6324Z" fill="#E31E25"/>
</g>
<defs>
<clipPath id="clip0">
<rect width="40" height="40" fill="white" transform="translate(17 18)"/>
</clipPath>
</defs>
</svg>
