<svg width="72" height="72" viewBox="0 0 72 72" fill="none" xmlns="http://www.w3.org/2000/svg">
<circle cx="36" cy="36" r="35" fill="white" stroke="#E31E25" stroke-width="2"/>
<g clip-path="url(#clip0)">
<path d="M38.3078 32.5686H41.3845C42.0217 32.5686 42.5384 32.0519 42.5384 31.4147C42.5384 30.7775 42.0217 30.2609 41.3845 30.2609H38.3078C37.6705 30.2609 37.1539 30.7775 37.1539 31.4147C37.1539 32.0519 37.6705 32.5686 38.3078 32.5686Z" fill="#E31E25"/>
<path d="M54.8461 34.8763H46.3845V19.107C46.3845 18.4698 45.8679 17.9531 45.2307 17.9531H26.7693C26.1321 17.9531 25.6155 18.4698 25.6155 19.107V34.8763H17.1539C16.5167 34.8763 16 35.3927 16 36.0299V52.9531C16 53.5903 16.5167 54.107 17.1539 54.107H54.8461C55.4833 54.107 56 53.5903 56 52.9531V36.0299C56 35.3927 55.4833 34.8763 54.8461 34.8763ZM43.3077 37.1838H47.1539V42.5686H43.3077V37.1838ZM37.9232 20.2609V25.6454H34.0768V20.2609H37.9232ZM27.9232 20.2609H31.7693V26.7993C31.7693 27.4365 32.2857 27.9531 32.9232 27.9531H39.0768C39.7143 27.9531 40.2307 27.4365 40.2307 26.7993V20.2609H44.0768V34.8763H27.9232V20.2609ZM28.3077 37.1838V42.5686H24.4616V37.1838H28.3077ZM18.3077 37.1838H22.1539V43.7225C22.1539 44.3597 22.6705 44.8763 23.3077 44.8763H29.4616C30.0988 44.8763 30.6155 44.3597 30.6155 43.7225V37.1838H34.8461V51.7993H18.3077V37.1838ZM53.6923 51.7993H37.1539V37.1838H41V43.7225C41 44.3597 41.5167 44.8763 42.1539 44.8763H48.3077C48.9449 44.8763 49.4616 44.3597 49.4616 43.7225V37.1838H53.6923V51.7993Z" fill="#E31E25"/>
<path d="M47.9232 47.1838C47.2857 47.1838 46.7693 47.7005 46.7693 48.3377C46.7693 48.9749 47.2857 49.4916 47.9232 49.4916H51C51.6372 49.4916 52.1539 48.9749 52.1539 48.3377C52.1539 47.7005 51.6372 47.1838 51 47.1838H47.9232Z" fill="#E31E25"/>
<path d="M31.7694 47.1838H28.6923C28.0551 47.1838 27.5384 47.7005 27.5384 48.3377C27.5384 48.9749 28.0551 49.4916 28.6923 49.4916H31.7694C32.4066 49.4916 32.9233 48.9749 32.9233 48.3377C32.9233 47.7005 32.4066 47.1838 31.7694 47.1838Z" fill="#E31E25"/>
</g>
<defs>
<clipPath id="clip0">
<rect width="40" height="40" fill="white" transform="translate(16 16)"/>
</clipPath>
</defs>
</svg>
