<svg width="22" height="22" viewBox="0 0 22 22" fill="none" xmlns="http://www.w3.org/2000/svg">
<path d="M0.483985 0.483986C1.1293 -0.161329 2.17556 -0.161329 2.82088 0.483986L21.516 19.1791C22.1613 19.8244 22.1613 20.8707 21.516 21.516C20.8707 22.1613 19.8244 22.1613 19.1791 21.516L0.483986 2.82088C-0.161328 2.17556 -0.161329 1.1293 0.483985 0.483986Z" fill="#E31E25"/>
<path d="M21.516 0.483986C20.8707 -0.161329 19.8244 -0.161329 19.1791 0.483986L0.484006 19.1791C-0.161308 19.8244 -0.161308 20.8707 0.484006 21.516C1.12932 22.1613 2.17558 22.1613 2.8209 21.516L21.516 2.82088C22.1613 2.17556 22.1613 1.1293 21.516 0.483986Z" fill="#E31E25"/>
</svg>
