<svg width="25" height="25" viewBox="0 0 25 25" fill="none" xmlns="http://www.w3.org/2000/svg">
<g clip-path="url(#clip0)">
<path d="M17.8726 0.00231283C14.0479 0.0413753 10.9162 3.18517 10.8915 7.01027C10.8842 8.15275 11.1539 9.28024 11.6738 10.2885L9.67658 11.8688C8.74177 12.6087 9.26638 14.1116 10.4567 14.1116H17.8768C21.8185 14.1116 25.0259 10.9272 25.0009 7.01076C24.9759 3.11071 21.7943 -0.0367497 17.8726 0.00231283ZM21.9151 10.9671C20.8387 12.0504 19.4046 12.6469 17.8768 12.6469H11.0536L12.7964 11.2679C13.2405 10.9165 13.3598 10.3035 13.0801 9.81047C12.6002 8.96442 12.3498 7.99943 12.3561 7.0197C12.3878 2.12331 18.3468 -0.39007 21.8658 3.07097C24.0502 5.21935 24.1227 8.74538 21.9151 10.9671Z" fill="#E31E25"/>
<path d="M13.9256 17.2171C13.5291 16.1825 12.3707 15.6659 11.3359 16.0626L9.72002 16.682C9.40976 16.8008 9.06182 16.7065 8.85415 16.447C7.01357 14.1467 6.11743 11.8295 6.03394 9.15459C6.02383 8.83145 6.21987 8.53653 6.52183 8.4208L8.16523 7.79082C9.19751 7.39517 9.71543 6.2334 9.31973 5.20108L7.82021 1.28936C7.42451 0.257082 6.26279 -0.260838 5.23047 0.134865L2.49311 1.18413C1.37446 1.61294 0.564111 2.56988 0.325488 3.74395C-0.361036 7.12149 0.0463863 11.0886 1.47266 14.9144C2.93516 18.8373 5.32783 22.1751 8.20991 24.3129C8.82183 24.7668 9.54687 25.0008 10.2815 25.0008C10.7021 25.0008 11.1259 24.9241 11.5332 24.7679L14.2705 23.7187C15.3052 23.3221 15.8217 22.1638 15.425 21.1289L13.9256 17.2171ZM13.7463 22.3511L11.0089 23.4003C10.3605 23.6489 9.64028 23.5503 9.08247 23.1365C3.71396 19.1544 0.429492 10.5858 1.76079 4.0356C1.89912 3.35503 2.36885 2.80034 3.01733 2.55176L5.75469 1.50249C6.03286 1.39575 6.34595 1.53545 6.45254 1.81358L7.952 5.72534C8.05864 6.00357 7.91909 6.3166 7.64092 6.42324L5.99751 7.05318C5.11406 7.3918 4.54038 8.25469 4.56992 9.20025C4.66382 12.2082 5.66172 14.8017 7.7105 17.3621C8.31802 18.1214 9.33628 18.3977 10.2442 18.0496L11.8601 17.4302C12.1382 17.3235 12.4508 17.4618 12.558 17.7413L14.0574 21.6531C14.1643 21.932 14.0251 22.2441 13.7463 22.3511Z" fill="#E31E25"/>
</g>
<defs>
<clipPath id="clip0">
<rect width="25" height="25" fill="white"/>
</clipPath>
</defs>
</svg>
