<svg width="100" height="100" viewBox="0 0 100 100" fill="none" xmlns="http://www.w3.org/2000/svg">
<circle cx="50" cy="50" r="48.5" stroke="#01DE24" stroke-width="3"/>
<path d="M28.7322 46.7724C29.7085 45.7961 31.2915 45.7961 32.2678 46.7724L46.3699 60.8745C47.3462 61.8508 47.3462 63.4337 46.3699 64.41C45.3936 65.3863 43.8106 65.3863 42.8343 64.41L28.7322 50.3079C27.7559 49.3316 27.7559 47.7487 28.7322 46.7724Z" fill="#01DE24"/>
<path d="M72.2581 35.7322C71.2818 34.7559 69.6989 34.7559 68.7226 35.7322L43.7325 60.7223C42.7561 61.6986 42.7561 63.2816 43.7325 64.2579C44.7088 65.2342 46.2917 65.2342 47.268 64.2579L72.2581 39.2678C73.2344 38.2915 73.2344 36.7085 72.2581 35.7322Z" fill="#01DE24"/>
</svg>
