<svg width="72" height="72" viewBox="0 0 72 72" fill="none" xmlns="http://www.w3.org/2000/svg">
<circle cx="36" cy="36" r="35" fill="white" stroke="#E31E25" stroke-width="2"/>
<g clip-path="url(#clip0)">
<path d="M46.2101 39.7815C43.4298 39.7815 41.168 42.0433 41.168 44.8235C41.168 47.6038 43.4298 49.8656 46.2101 49.8656C48.9908 49.8656 51.2521 47.6038 51.2521 44.8235C51.2521 42.0433 48.9903 39.7815 46.2101 39.7815ZM46.2101 47.3445C44.8197 47.3445 43.689 46.2138 43.689 44.8235C43.689 43.4332 44.8197 42.3025 46.2101 42.3025C47.6004 42.3025 48.7311 43.4332 48.7311 44.8235C48.7311 46.2139 47.6004 47.3445 46.2101 47.3445Z" fill="#E31E25"/>
<path d="M28.9831 39.7815C26.2029 39.7815 23.9411 42.0433 23.9411 44.8235C23.9411 47.6038 26.2029 49.8656 28.9831 49.8656C31.7634 49.8656 34.0252 47.6038 34.0252 44.8235C34.0252 42.0433 31.7634 39.7815 28.9831 39.7815ZM28.9831 47.3445C27.5928 47.3445 26.4621 46.2138 26.4621 44.8235C26.4621 43.4332 27.5928 42.3025 28.9831 42.3025C30.3731 42.3025 31.5041 43.4332 31.5041 44.8235C31.5041 46.2139 30.3734 47.3445 28.9831 47.3445Z" fill="#E31E25"/>
<path d="M49.6054 25.3495C49.3911 24.9239 48.9554 24.6554 48.4789 24.6554H41.8403V27.1764H47.7016L51.1339 34.0033L53.3869 32.8705L49.6054 25.3495Z" fill="#E31E25"/>
<path d="M42.4285 43.6051H32.8907V46.1261H42.4285V43.6051Z" fill="#E31E25"/>
<path d="M25.2016 43.6051H20.8319C20.1357 43.6051 19.5715 44.1694 19.5715 44.8656C19.5715 45.5618 20.1358 46.126 20.8319 46.126H25.2017C25.898 46.126 26.4622 45.5617 26.4622 44.8656C26.4622 44.1693 25.8979 43.6051 25.2016 43.6051Z" fill="#E31E25"/>
<path d="M55.7353 35.8991L53.2559 32.7058C53.0177 32.3982 52.6501 32.2184 52.2605 32.2184H43.1008V23.3949C43.1008 22.6986 42.5366 22.1344 41.8404 22.1344H20.8319C20.1357 22.1344 19.5715 22.6987 19.5715 23.3949C19.5715 24.091 20.1358 24.6553 20.8319 24.6553H40.5798V33.4789C40.5798 34.1751 41.1441 34.7393 41.8403 34.7393H51.6433L53.479 37.104V43.6049H49.9916C49.2953 43.6049 48.7311 44.1692 48.7311 44.8653C48.7311 45.5616 49.2954 46.1258 49.9916 46.1258H54.7394C55.4357 46.1258 55.9999 45.5615 56 44.8653V36.6722C56 36.3924 55.9067 36.1201 55.7353 35.8991Z" fill="#E31E25"/>
<path d="M25.1177 37.2185H19.3194C18.6231 37.2185 18.0589 37.7828 18.0589 38.479C18.0589 39.1752 18.6232 39.7394 19.3194 39.7394H25.1177C25.8139 39.7394 26.3781 39.1751 26.3781 38.479C26.3782 37.7828 25.8139 37.2185 25.1177 37.2185Z" fill="#E31E25"/>
<path d="M28.0168 32.2604H17.2605C16.5643 32.2604 16 32.8247 16 33.5209C16 34.2172 16.5643 34.7814 17.2605 34.7814H28.0168C28.713 34.7814 29.2773 34.2171 29.2773 33.5209C29.2773 32.8248 28.713 32.2604 28.0168 32.2604Z" fill="#E31E25"/>
<path d="M30.0757 27.3025H19.3194C18.6231 27.3025 18.0589 27.8668 18.0589 28.563C18.0589 29.2592 18.6232 29.8234 19.3194 29.8234H30.0757C30.772 29.8234 31.3362 29.2591 31.3362 28.563C31.3362 27.8668 30.772 27.3025 30.0757 27.3025Z" fill="#E31E25"/>
</g>
<defs>
<clipPath id="clip0">
<rect width="40" height="40" fill="white" transform="translate(16 16)"/>
</clipPath>
</defs>
</svg>
