<svg id="Capa_1" enable-background="new 0 0 512 512" height="512" viewBox="0 0 512 512" width="512" xmlns="http://www.w3.org/2000/svg"><path d="m421.737 303.841-90.737-27.92v-37.518c18.547-18.946 30-44.86 30-73.404v-65.064c6.893-10.371 20-36.467 20-84.935 0-8.284-6.716-15-15-15h-155c-32.615 0-59.236 26.161-59.984 58.6-.01.232-.016.466-.016.701v105.699c0 28.544 11.453 54.458 30 73.404v37.518l-90.737 27.919c-22.017 6.774-39.263 30.124-39.263 53.159v140c0 8.284 6.716 15 15 15h380c8.284 0 15-6.716 15-15v-140c0-23.035-17.246-46.385-39.263-53.159zm-66.68 10.871 3.653 41.415h-26.692c-5.254 0-10.124 2.749-12.84 7.246l-48.178 79.774v-71.147l50.671-67.56zm-144.057-54.857c13.646 6.5 28.904 10.145 45 10.145s31.353-3.645 45-10.145v22.145l-45 60-45-60zm45-19.855c-41.355 0-75-33.645-75-75v-55h150v55c0 41.355-33.645 75-75 75zm-45-210h139.491c-1.874 26.751-8.481 42.589-12.527 50h-156.964v-20c0-16.542 13.458-30 30-30zm-20.671 274.44 50.671 67.56v71.147l-48.178-79.775c-2.716-4.497-7.586-7.246-12.84-7.246h-26.692l3.654-41.416zm-109.329 52.56c0-9.903 8.62-21.573 18.085-24.485l26.901-8.277-4.021 45.572c-.369 4.191 1.038 8.345 3.88 11.448 2.841 3.103 6.855 4.87 11.063 4.87h34.61l57.9 95.872h-148.418zm350 125h-148.418l18.117-30h55.619c8.284 0 15-6.716 15-15s-6.716-15-15-15h-37.501l21.664-35.873h34.61c4.207 0 8.222-1.767 11.063-4.87 2.842-3.103 4.249-7.257 3.88-11.448l-4.021-45.572 26.901 8.277c9.466 2.913 18.086 14.583 18.086 24.486z"/></svg>