<svg width="69" height="69" viewBox="0 0 69 69" fill="none" xmlns="http://www.w3.org/2000/svg">
<g clip-path="url(#clip0)">
<path d="M68.2983 4.27102C67.8576 3.81912 67.2521 3.56577 66.6209 3.56912H2.37953C1.74831 3.56577 1.14283 3.81912 0.702113 4.27102C0.250211 4.71174 -0.0031424 5.31722 0.000216075 5.94843V55.9139C-0.0031424 56.5452 0.250211 57.1506 0.702113 57.5914C1.14283 58.0433 1.74831 58.2966 2.37953 58.2933H65.4313C67.4023 58.2933 69.0002 56.6954 69.0002 54.7243V5.94843C69.0036 5.31722 68.7502 4.71174 68.2983 4.27102Z" fill="#EFEFEF"/>
<path d="M69 5.94853V54.7244C69.0001 55.6708 68.6234 56.5783 67.9531 57.2465L63.0517 52.3451V9.5175L68.2981 4.27112C68.75 4.71184 69.0034 5.31731 69 5.94853Z" fill="#DADADA"/>
<path d="M5.94828 9.5175V52.3451L0.701899 57.5915C0.249998 57.1507 -0.00335603 56.5453 2.4521e-06 55.914V5.94853C-0.00335603 5.31731 0.249998 4.71184 0.701899 4.27112L5.94828 9.5175Z" fill="#DADADA"/>
<path d="M67.9531 57.2463C67.285 57.9166 66.3775 58.2933 65.4311 58.2932H2.37933C1.74811 58.2966 1.14264 58.0432 0.70192 57.5913L5.9483 52.345H63.0518L67.9531 57.2463Z" fill="#B0B7BD"/>
<path d="M5.94827 9.51733H63.0517V52.3449H5.94827V9.51733Z" fill="#ECF0F1"/>
<path d="M63.0517 9.51733C63.0517 9.51733 5.94827 9.51733 5.94827 52.3449V9.51733H63.0517Z" fill="white"/>
<path d="M42.8276 17.845H26.1724C25.5154 17.845 24.9828 17.3124 24.9828 16.6554C24.9828 15.9983 25.5154 15.4657 26.1724 15.4657H42.8276C43.4846 15.4657 44.0173 15.9983 44.0173 16.6554C44.0173 17.3124 43.4846 17.845 42.8276 17.845Z" fill="#BDC3C7"/>
<path d="M30.931 44.0174H14.2759C13.6188 44.0174 13.0862 43.4847 13.0862 42.8277C13.0862 42.1707 13.6188 41.6381 14.2759 41.6381H30.931C31.5881 41.6381 32.1207 42.1707 32.1207 42.8277C32.1207 43.4847 31.5881 44.0174 30.931 44.0174Z" fill="#95A5A5"/>
<path d="M46.3965 23.7933H22.6034C21.9464 23.7933 21.4138 23.2606 21.4138 22.6036C21.4138 21.9466 21.9464 21.4139 22.6034 21.4139H46.3965C47.0536 21.4139 47.5862 21.9466 47.5862 22.6036C47.5862 23.2606 47.0536 23.7933 46.3965 23.7933Z" fill="#BDC3C7"/>
<path d="M41.6379 48.0623L41.6379 63.504C41.635 63.9184 41.8481 64.3045 42.2002 64.523C42.5523 64.7416 42.9928 64.7612 43.3629 64.5746L46.456 63.0162C46.7935 62.8497 47.1893 62.8497 47.5267 63.0162L50.6198 64.5746C50.9899 64.7612 51.4305 64.7416 51.7826 64.523C52.1347 64.3045 52.3477 63.9184 52.3448 63.504L52.3449 48.0623H41.6379Z" fill="#F15642"/>
<path d="M30.931 39.2587C28.018 39.2587 25.1542 38.5072 22.6165 37.0768C20.0746 38.5201 17.1989 39.2724 14.2759 39.2587C13.6188 39.2587 13.0862 38.726 13.0862 38.069C13.0862 37.412 13.6188 36.8793 14.2759 36.8793C16.4082 36.8888 18.5161 36.4252 20.4478 35.5219C19.2131 34.5754 18.4233 33.1616 18.2648 31.6139C18.2648 30.9001 18.5776 28.5518 22.6034 28.5518C26.6292 28.5518 26.9421 30.8954 26.9421 31.6139C26.7844 33.1636 25.9952 34.5797 24.7603 35.5291C26.6926 36.4282 28.7998 36.8893 30.931 36.8793C31.5881 36.8793 32.1207 37.412 32.1207 38.069C32.1207 38.726 31.5881 39.2587 30.931 39.2587ZM22.6034 30.9311C21.6993 30.9311 20.6441 31.1095 20.6441 31.6139C20.6441 32.1183 21.1782 33.1343 22.5939 34.224C23.8597 33.2557 24.5628 32.2433 24.5628 31.6139C24.5628 31.1095 23.5076 30.9311 22.6034 30.9311Z" fill="#95A5A5"/>
<path d="M58.2931 39.8535C58.2931 41.2252 55.7318 42.0758 55.2369 43.269C54.7241 44.505 55.9138 46.9141 54.9823 47.8456C54.0508 48.7771 51.6417 47.5874 50.4069 48.099C49.2137 48.5939 48.3631 51.1552 46.9914 51.1552C45.6197 51.1552 44.7691 48.5939 43.5759 48.099C42.3398 47.5863 39.9308 48.7759 38.9993 47.8444C38.0678 46.9129 39.2574 44.5039 38.7459 43.269C38.251 42.0758 35.6897 41.2252 35.6897 39.8535C35.6897 38.4818 38.251 37.6312 38.7459 36.438C39.2586 35.2019 38.069 32.7929 39.0005 31.8614C39.932 30.9299 42.341 32.1195 43.5759 31.608C44.7655 31.1131 45.6197 28.5518 46.9914 28.5518C48.3631 28.5518 49.2137 31.1131 50.4069 31.608C51.6429 32.1207 54.052 30.9311 54.9835 31.8626C55.915 32.7941 54.7253 35.2031 55.2369 36.438C55.7318 37.6312 58.2931 38.4818 58.2931 39.8535Z" fill="#FA9689"/>
<path d="M46.9914 44.0174C49.291 44.0174 51.1552 42.1532 51.1552 39.8536C51.1552 37.554 49.291 35.6898 46.9914 35.6898C44.6918 35.6898 42.8276 37.554 42.8276 39.8536C42.8276 42.1532 44.6918 44.0174 46.9914 44.0174Z" fill="#DA3B26"/>
</g>
<defs>
<clipPath id="clip0">
<rect width="69" height="69" fill="white"/>
</clipPath>
</defs>
</svg>
