<?xml version="1.0" encoding="iso-8859-1"?>
<!-- Generator: Adobe Illustrator 19.0.0, SVG Export Plug-In . SVG Version: 6.00 Build 0)  -->
<svg version="1.1" id="Capa_1" xmlns="http://www.w3.org/2000/svg" xmlns:xlink="http://www.w3.org/1999/xlink" x="0px" y="0px"
	 viewBox="0 0 512 512" style="enable-background:new 0 0 512 512;" xml:space="preserve">
<g>
	<g>
		<path d="M66,0v132h30v90h45v15c0,19.299,15.701,35,35,35h5v44h30v-44h5c19.299,0,35-15.701,35-35v-15h45v-90h50v300h-50v-50H96v50
			H66v80h380V0H66z M221,237c0,2.757-2.243,5-5,5h-40c-2.757,0-5-2.243-5-5v-15h50V237z M266,192H126v-60h32.787l-29.394,29.394
			l21.213,21.213l29.093-29.093C184.682,155.747,190.196,157,196,157s11.318-1.253,16.301-3.486l29.093,29.093l21.213-21.213
			L233.213,132H266V192z M186,117c0-5.514,4.486-10,10-10c5.514,0,10,4.486,10,10s-4.486,10-10,10C190.486,127,186,122.514,186,117z
			 M126,412h140v20H126V412z M416,482H96v-20h320V482z M416,432h-40V132h40V432z M416,102H233.071
			C229.006,91.992,221.008,83.994,211,79.929V39h-30v40.929c-10.008,4.064-18.006,12.063-22.071,22.071H96V30h160v30h30V30h20v30h30
			V30h20v30h30V30h30V102z"/>
	</g>
</g>
<g>
</g>
<g>
</g>
<g>
</g>
<g>
</g>
<g>
</g>
<g>
</g>
<g>
</g>
<g>
</g>
<g>
</g>
<g>
</g>
<g>
</g>
<g>
</g>
<g>
</g>
<g>
</g>
<g>
</g>
</svg>
