<svg width="45" height="45" viewBox="0 0 45 45" fill="none" xmlns="http://www.w3.org/2000/svg">
<circle cx="22.5" cy="22.5" r="21.5" stroke="#E31E25" stroke-width="2"/>
<path d="M22.4998 11L11.5137 14.1598V19.6686C11.5137 26.7388 15.7128 33.0913 22.2113 35.8764L22.4998 36L22.7883 35.8764C29.2869 33.0913 33.4859 26.7388 33.4859 19.6686V14.1598L22.4998 11ZM32.0211 19.6686C32.0211 26.0468 28.2945 31.8019 22.4998 34.4186C16.7051 31.8019 12.9785 26.0468 12.9785 19.6686V15.2627L22.4998 12.5242L32.0211 15.2627V19.6686Z" fill="#E31E25"/>
<path d="M22.4999 14.0669L14.4434 16.3689V19.6687C14.4434 25.0805 17.3969 30.0402 22.1514 32.6122L22.4999 32.8007L22.8484 32.6122C27.6029 30.0402 30.5564 25.0805 30.5564 19.6687V16.3689L22.4999 14.0669ZM21.7674 30.6709C18.1244 28.227 15.9082 24.1177 15.9082 19.6687V17.4739L21.7674 15.7996V30.6709ZM29.0916 19.6687C29.0916 24.1177 26.8753 28.2269 23.2323 30.6709V15.7996L29.0916 17.4738V19.6687Z" fill="#E31E25"/>
</svg>
