<svg width="25" height="25" viewBox="0 0 25 25" fill="none" xmlns="http://www.w3.org/2000/svg">
<g clip-path="url(#clip0)">
<path d="M24.5705 17.4546L21.763 14.6471C24.9833 7.8897 20.0336 -0.00195312 12.5001 -0.00195312C4.9796 -0.00195312 0.0104103 7.87612 3.23712 14.6471L0.4296 17.4546C-0.351748 18.2359 -0.0195211 19.5694 1.03995 19.892L4.15851 20.8393L5.10572 23.9578C5.42706 25.0131 6.75777 25.3521 7.54317 24.5682L11.6417 20.4696C12.2051 20.5164 12.7757 20.5179 13.3585 20.4696L17.457 24.5682C18.2396 25.3507 19.5724 25.0152 19.8944 23.9578L20.8417 20.8393L23.9602 19.892C25.0213 19.5689 25.3505 18.2346 24.5705 17.4546ZM6.50758 23.5321L5.55987 20.4135C5.41778 19.9448 5.05304 19.58 4.58434 19.4375L1.46578 18.4903L3.99015 15.9659C5.36119 18.001 7.4422 19.52 9.87525 20.1645L6.50758 23.5321ZM5.04859 14.9073C1.36861 9.04707 5.65006 1.46284 12.5001 1.46284C19.4054 1.46284 23.5984 9.09966 19.9515 14.9073C16.4985 20.4142 8.50108 20.4134 5.04859 14.9073ZM20.4159 19.4375C19.9471 19.58 19.5824 19.9448 19.4399 20.4135L18.4926 23.532L15.1251 20.1645C17.5581 19.5199 19.6391 18.0009 21.0102 15.9658L23.5345 18.4902L20.4159 19.4375Z" fill="#E31E25"/>
<path d="M12.4992 2.92578C7.59786 2.92578 4.0544 7.6834 5.49356 12.3879C6.71974 16.4058 11.0693 18.5406 14.9601 17.1485C17.794 16.1343 19.8233 13.4232 19.8233 10.2498C19.8233 6.21133 16.5377 2.92578 12.4992 2.92578ZM8.54918 14.5729C4.5942 10.963 7.19601 4.39058 12.4992 4.39058C16.1085 4.39058 18.8559 7.63818 18.2857 11.1687C17.5684 15.745 11.9983 17.7291 8.54918 14.5729Z" fill="#E31E25"/>
<path d="M14.7225 8.27129L11.4942 10.6676L10.3758 9.47597C10.099 9.18095 9.63554 9.16626 9.34057 9.44311C9.04565 9.71992 9.0309 10.1834 9.30776 10.4784L10.8726 12.1458C11.1273 12.4172 11.5448 12.4542 11.8432 12.2327L15.5956 9.44751C15.9204 9.20644 15.9882 8.74765 15.7471 8.42285C15.506 8.09809 15.0473 8.03022 14.7225 8.27129Z" fill="#E31E25"/>
</g>
<defs>
<clipPath id="clip0">
<rect width="25" height="25" fill="white"/>
</clipPath>
</defs>
</svg>
