<svg width="72" height="72" viewBox="0 0 72 72" fill="none" xmlns="http://www.w3.org/2000/svg">
<circle cx="36" cy="36" r="35" fill="white" stroke="#E31E25" stroke-width="2"/>
<path d="M56 43.0703C56 37.2399 52.0715 32.1459 46.5316 30.6109C46.1834 22.4954 39.4732 16 31.2734 16C22.8515 16 16 22.8515 16 31.2734C16 34.0182 16.7306 36.6906 18.1179 39.0368L16.0562 46.4904L23.5101 44.429C25.6667 45.7043 28.0996 46.4227 30.6106 46.531C32.1453 52.0712 37.2396 56 43.0703 56C45.3976 56 47.6608 55.3802 49.6493 54.2025L55.9435 55.9435L54.2025 49.6493C55.3802 47.6608 56 45.3976 56 43.0703ZM23.8799 41.8948L19.4177 43.1292L20.6521 38.6669L20.3707 38.2269C19.0447 36.1523 18.3438 33.7478 18.3438 31.2734C18.3438 24.1439 24.1439 18.3438 31.2734 18.3438C38.403 18.3438 44.2031 24.1439 44.2031 31.2734C44.2031 38.403 38.403 44.2031 31.2734 44.2031C28.7991 44.2031 26.3949 43.5021 24.32 42.1761L23.8799 41.8948ZM52.5823 52.5823L49.2712 51.6662L48.829 51.954C47.1148 53.0676 45.1232 53.6562 43.0703 53.6562C38.4878 53.6562 34.461 50.6933 33.0343 46.4446C40.0515 45.6356 45.6356 40.0515 46.4449 33.034C50.6933 34.461 53.6562 38.4878 53.6562 43.0703C53.6562 45.1232 53.0676 47.1148 51.954 48.829L51.6662 49.2712L52.5823 52.5823Z" fill="#E31E25"/>
<path d="M30.1016 37.1719H32.4453V39.5156H30.1016V37.1719Z" fill="#E31E25"/>
<path d="M33.6172 27.7188C33.6172 28.3843 33.3462 28.9987 32.8542 29.4488L30.1016 31.9683V34.8281H32.4453V33.0004L34.4366 31.1779C35.4052 30.2914 35.9609 29.0307 35.9609 27.7188C35.9609 25.1339 33.8583 23.0312 31.2734 23.0312C28.6886 23.0312 26.5859 25.1339 26.5859 27.7188H28.9297C28.9297 26.4263 29.981 25.375 31.2734 25.375C32.5659 25.375 33.6172 26.4263 33.6172 27.7188Z" fill="#E31E25"/>
</svg>
