<svg width="21" height="21" viewBox="0 0 21 21" fill="none" xmlns="http://www.w3.org/2000/svg">
<g clip-path="url(#clip0)">
<path d="M10.4992 18.1286C10.4974 18.1286 10.4955 18.1286 10.4936 18.1286C9.85993 18.1243 4.25808 18.0732 2.67097 17.644C1.56178 17.3458 0.686191 16.4712 0.387225 15.3618C-0.0280592 13.8027 -0.00162327 10.8011 0.00126065 10.5614C-0.00146305 10.3228 -0.0282194 7.2963 0.385943 5.72441C0.386424 5.72297 0.386744 5.72136 0.387225 5.71992C0.682826 4.62323 1.57812 3.72153 2.66824 3.42256C2.67097 3.42176 2.67385 3.42112 2.67657 3.42032C4.24574 3.00792 9.85865 2.95745 10.4936 2.95312H10.505C11.1402 2.95745 16.757 3.00856 18.3295 3.43842C19.4358 3.73579 20.3108 4.60929 20.6105 5.7172C21.0414 7.29022 21.0015 10.3233 20.9971 10.5793C21.0002 10.8315 21.0253 13.8063 20.6125 15.3732C20.6121 15.3748 20.6117 15.3762 20.6113 15.3777C20.3122 16.487 19.4368 17.3617 18.3263 17.6601C18.3249 17.6606 18.3233 17.6609 18.3218 17.6614C16.7528 18.0737 11.1397 18.1241 10.505 18.1286C10.503 18.1286 10.5011 18.1286 10.4992 18.1286ZM1.97178 6.14514C1.60712 7.53262 1.64157 10.5205 1.64189 10.5506V10.5723C1.63099 11.4009 1.66929 13.8007 1.97194 14.9372C2.1187 15.4815 2.55048 15.9126 3.09811 16.0599C4.26914 16.3766 8.83165 16.4763 10.4992 16.488C12.1711 16.4763 16.7403 16.3794 17.9027 16.0753C18.4486 15.9275 18.8789 15.4978 19.0266 14.9529C19.3296 13.7997 19.3676 11.4117 19.3565 10.5883C19.3565 10.5796 19.3565 10.571 19.3567 10.5623C19.3717 9.72376 19.3421 7.29598 19.0281 6.15027C19.0277 6.14915 19.0274 6.14802 19.0273 6.1469C18.8799 5.60024 18.4479 5.16909 17.9003 5.02185C16.7406 4.70478 12.1707 4.60545 10.4992 4.59375C8.82845 4.60545 4.26369 4.70222 3.09779 5.00599C2.56058 5.155 2.11902 5.60152 1.97178 6.14514ZM19.8192 15.1643H19.8197H19.8192ZM8.4082 13.863V7.2186L14.1504 10.5409L8.4082 13.863Z" fill="white"/>
</g>
<defs>
<clipPath id="clip0">
<rect width="21" height="21" fill="white"/>
</clipPath>
</defs>
</svg>
