<svg width="45" height="45" viewBox="0 0 45 45" fill="none" xmlns="http://www.w3.org/2000/svg">
<circle cx="22.5" cy="22.5" r="21.5" stroke="#E31E25" stroke-width="2"/>
<g clip-path="url(#clip0)">
<path d="M30.8977 26.8648C30.3286 25.6783 28.2925 24.0313 26.3254 22.4399C25.2282 21.553 24.1914 20.7144 23.5305 20.0535C23.3649 19.8867 23.1172 19.8335 22.8986 19.9121C22.4914 20.0595 22.24 20.1731 22.0419 20.2613C21.7398 20.3966 21.6383 20.4425 21.2311 20.4836C21.051 20.5017 20.8891 20.5984 20.7888 20.7482C19.9345 22.0254 19.05 21.9167 18.4591 21.7185C18.2706 21.6557 18.2368 21.5747 18.2187 21.4974C18.0918 20.967 18.7286 19.732 19.5539 18.9067C21.5174 16.942 22.53 16.4502 24.6687 17.406C27.0951 18.491 29.5262 19.3405 29.5504 19.349C29.8682 19.4589 30.2102 19.2922 30.3201 18.9768C30.4289 18.6614 30.2633 18.317 29.9479 18.2071C29.9237 18.1987 27.5409 17.3661 25.1629 16.3015C22.3922 15.063 20.8721 15.8786 18.7008 18.0512C17.8743 18.8777 16.7517 20.55 17.0417 21.7765C17.1661 22.2985 17.5335 22.6852 18.0796 22.8652C19.4487 23.3172 20.6981 22.8845 21.6285 21.6497C22.0128 21.5905 22.2218 21.5035 22.5359 21.3621C22.6495 21.3113 22.7824 21.2521 22.9589 21.1808C23.6501 21.8297 24.5829 22.5849 25.5653 23.3788C27.3415 24.8155 29.3558 26.4443 29.8089 27.3868C30.0325 27.852 29.792 28.1553 29.6289 28.2943C29.3896 28.4997 29.0622 28.565 28.8846 28.4405C28.6888 28.3063 28.4339 28.2979 28.2321 28.4187C28.0291 28.5395 27.9155 28.7679 27.9409 29.0023C27.9819 29.3866 27.6303 29.6065 27.4781 29.6827C27.0914 29.8784 26.6878 29.8446 26.5368 29.7044C26.3676 29.5473 26.1247 29.5014 25.9096 29.5812C25.6946 29.6621 25.5447 29.8603 25.5229 30.0898C25.4867 30.4862 25.1931 30.8668 24.81 31.0154C24.6251 31.0855 24.3569 31.1278 24.1164 30.9078C23.9666 30.7725 23.7588 30.7205 23.5643 30.7677C23.3673 30.816 23.209 30.9586 23.1401 31.1483C23.1172 31.2087 23.0652 31.3537 22.4997 31.3537C22.0973 31.3537 21.3735 31.0818 21.0195 30.8474C20.5954 30.5683 17.9358 28.5842 15.6388 26.6605C15.3162 26.3887 14.7579 25.8062 14.2649 25.2915C13.8275 24.8347 13.4276 24.4203 13.2221 24.2463C12.9648 24.0288 12.5841 24.0614 12.3703 24.3176C12.1552 24.5725 12.1866 24.9544 12.4416 25.1695C12.6289 25.3278 12.9914 25.7108 13.3913 26.1277C13.9303 26.6907 14.4873 27.2732 14.8619 27.5873C17.1118 29.4712 19.8161 31.5048 20.3549 31.8588C20.7996 32.1512 21.7578 32.562 22.4998 32.562C23.0954 32.562 23.5534 32.4255 23.8712 32.1585C24.2965 32.324 24.7799 32.3252 25.2451 32.144C25.7949 31.9313 26.2468 31.5023 26.5029 30.9828C26.979 31.0843 27.524 31.013 28.0194 30.7641C28.5039 30.52 28.8543 30.1467 29.0283 29.7104C29.5093 29.7358 30.0046 29.5654 30.4143 29.2138C31.1079 28.6205 31.2988 27.6974 30.8977 26.8648Z" fill="#E31E25"/>
<path d="M20.0832 16.8538H14.6457C14.3122 16.8538 14.0415 17.1244 14.0415 17.4579C14.0415 17.7914 14.3122 18.0621 14.6457 18.0621H20.0832C20.4167 18.0621 20.6874 17.7914 20.6874 17.4579C20.6874 17.1244 20.4167 16.8538 20.0832 16.8538Z" fill="#E31E25"/>
<path d="M32.6681 25.5794C32.4808 25.3027 32.1062 25.2266 31.8295 25.4151L30.063 26.6016C29.7863 26.7877 29.7125 27.1635 29.8987 27.4402C30.0158 27.613 30.2068 27.7073 30.4013 27.7073C30.5162 27.7073 30.6333 27.6746 30.7373 27.6046L32.5038 26.418C32.7805 26.2319 32.8542 25.8561 32.6681 25.5794Z" fill="#E31E25"/>
<path d="M28.9175 28.4625C28.485 28.1218 26.5504 26.1414 25.3542 24.8944C25.1234 24.6527 24.7403 24.6442 24.4999 24.8762C24.2582 25.107 24.2509 25.49 24.4817 25.7305C24.7923 26.0544 27.5315 28.9097 28.1683 29.4124C28.2783 29.4994 28.4112 29.5417 28.5417 29.5417C28.7193 29.5417 28.897 29.4619 29.0178 29.3109C29.2245 29.0498 29.1798 28.6692 28.9175 28.4625Z" fill="#E31E25"/>
<path d="M26.5034 29.6744C25.7796 29.0956 23.9611 27.1634 23.5502 26.7164C23.323 26.4699 22.9424 26.4554 22.6959 26.6801C22.4506 26.906 22.4337 27.2891 22.6596 27.5344C22.6814 27.5574 24.8516 29.9004 25.7482 30.6181C25.8593 30.7063 25.9935 30.7498 26.1252 30.7498C26.3016 30.7498 26.478 30.6712 26.5976 30.5239C26.8055 30.2628 26.7632 29.8822 26.5034 29.6744Z" fill="#E31E25"/>
<path d="M24.0987 30.8914C23.2372 30.1652 21.4742 28.2886 21.1299 27.92C20.9015 27.676 20.5184 27.6627 20.2755 27.891C20.0315 28.1194 20.0194 28.5012 20.2465 28.7454C20.742 29.2758 22.4288 31.0642 23.3194 31.8157C23.4329 31.9112 23.5707 31.9583 23.7084 31.9583C23.88 31.9583 24.0516 31.8846 24.1712 31.7432C24.3863 31.4871 24.3537 31.1064 24.0987 30.8914Z" fill="#E31E25"/>
<path d="M15.0615 15.8113C14.0259 14.8301 9.885 14.5123 8.64044 14.4386C8.46887 14.4301 8.31056 14.4869 8.18975 14.6017C8.06887 14.7153 8 14.8748 8 15.0415V25.9165C8 26.25 8.27069 26.5207 8.60419 26.5207H12.2292C12.4902 26.5207 12.7222 26.3528 12.8031 26.1038C12.8913 25.8331 14.9733 19.4435 15.2476 16.3018C15.2633 16.1181 15.1956 15.9369 15.0615 15.8113ZM11.7881 25.3124H9.20831V15.6892C11.1501 15.8426 13.2454 16.1761 14.0066 16.5459C13.6864 19.1921 12.2376 23.8938 11.7881 25.3124Z" fill="#E31E25"/>
<path d="M36.3956 15.6455C31.6517 15.6455 29.0199 16.8599 28.91 16.9106C28.7529 16.9843 28.6357 17.1209 28.5874 17.2864C28.5391 17.452 28.5632 17.6296 28.6538 17.777C29.4006 18.9793 31.7387 25.6566 32.1882 27.2854C32.2607 27.5476 32.4988 27.7288 32.7706 27.7288H36.3956C36.7291 27.7288 36.9998 27.4581 36.9998 27.1246V16.2496C36.9998 15.9149 36.7291 15.6455 36.3956 15.6455ZM35.7915 26.5205H33.2226C32.6498 24.6548 30.9581 19.7901 30.0144 17.7794C30.9364 17.4665 32.9169 16.9288 35.7915 16.8611V26.5205Z" fill="#E31E25"/>
</g>
<defs>
<clipPath id="clip0">
<rect width="29" height="29" fill="white" transform="translate(8 9)"/>
</clipPath>
</defs>
</svg>
